<svg xmlns="http://www.w3.org/2000/svg" xmlns:xlink="http://www.w3.org/1999/xlink" viewBox="0 0 20.21 20"><defs><style>.cls-1{mask:url(#mask);filter:url(#luminosity-noclip-3);}.cls-13,.cls-16,.cls-17,.cls-2,.cls-4,.cls-9{mix-blend-mode:multiply;}.cls-2{fill:url(#radial-gradient);}.cls-3{mask:url(#mask-2);filter:url(#luminosity-noclip-4);}.cls-4{fill:url(#radial-gradient-2);}.cls-5{fill:none;}.cls-6{isolation:isolate;}.cls-7{fill:#0f9d58;}.cls-15,.cls-8{fill:#fff;}.cls-8{fill-opacity:0.32;}.cls-9{opacity:0.24;}.cls-10{fill:#263238;}.cls-11{clip-path:url(#clip-path);}.cls-12{mask:url(#mask-3);}.cls-13{fill:url(#radial-gradient-3);}.cls-14{fill:#f1f1f1;}.cls-15{fill-opacity:0.48;}.cls-16{opacity:0.16;}.cls-17,.cls-19{opacity:0.08;}.cls-18{mask:url(#mask-4);}.cls-19{fill:url(#radial-gradient-4);}.cls-20{filter:url(#luminosity-noclip-2);}.cls-21{filter:url(#luminosity-noclip);}</style><filter id="luminosity-noclip" x="5.83" y="-8221.97" width="14.38" height="32766" filterUnits="userSpaceOnUse" color-interpolation-filters="sRGB"><feFlood flood-color="#fff" result="bg"/><feBlend in="SourceGraphic" in2="bg"/></filter><mask id="mask" x="5.83" y="-8221.97" width="14.38" height="32766" maskUnits="userSpaceOnUse"><g class="cls-21"/></mask><radialGradient id="radial-gradient" cx="9.58" cy="6.2" r="12.32" gradientUnits="userSpaceOnUse"><stop offset="0" stop-color="#262626"/><stop offset="0.26" stop-color="#191919"/><stop offset="0.66" stop-color="#0a0a0a"/><stop offset="1" stop-color="#050505"/></radialGradient><filter id="luminosity-noclip-2" x="1.25" y="-8221.97" width="17.5" height="32766" filterUnits="userSpaceOnUse" color-interpolation-filters="sRGB"><feFlood flood-color="#fff" result="bg"/><feBlend in="SourceGraphic" in2="bg"/></filter><mask id="mask-2" x="1.25" y="-8221.97" width="17.5" height="32766" maskUnits="userSpaceOnUse"><g class="cls-20"/></mask><radialGradient id="radial-gradient-2" cx="3.81" cy="2.57" r="18.47" gradientUnits="userSpaceOnUse"><stop offset="0" stop-color="#fff"/><stop offset="0.07" stop-color="#e0e0e0"/><stop offset="0.21" stop-color="#a5a5a5"/><stop offset="0.36" stop-color="#737373"/><stop offset="0.5" stop-color="#494949"/><stop offset="0.64" stop-color="#292929"/><stop offset="0.77" stop-color="#131313"/><stop offset="0.89" stop-color="#050505"/><stop offset="1"/></radialGradient><clipPath id="clip-path"><path class="cls-5" d="M10,0A8.75,8.75,0,0,0,1.25,8.75c0,4.6,4.15,8.33,8.75,8.33V20c5.3-2.58,8.75-6.85,8.75-11.25A8.75,8.75,0,0,0,10,0Z"/></clipPath><filter id="luminosity-noclip-3" x="5.83" y="6.25" width="14.38" height="13.75" filterUnits="userSpaceOnUse" color-interpolation-filters="sRGB"><feFlood flood-color="#fff" result="bg"/><feBlend in="SourceGraphic" in2="bg"/></filter><mask id="mask-3" x="5.83" y="6.25" width="14.38" height="13.75" maskUnits="userSpaceOnUse"><g class="cls-1"><polygon class="cls-2" points="20.21 20 20.21 11.88 14.58 6.25 10.83 6.25 10.83 7.5 9.58 6.25 5.83 10 15.83 20 20.21 20"/></g></mask><radialGradient id="radial-gradient-3" cx="9.58" cy="6.2" r="12.32" gradientUnits="userSpaceOnUse"><stop offset="0" stop-color="#263238"/><stop offset="1" stop-color="#263238"/></radialGradient><filter id="luminosity-noclip-4" x="1.25" y="0" width="17.5" height="20" filterUnits="userSpaceOnUse" color-interpolation-filters="sRGB"><feFlood flood-color="#fff" result="bg"/><feBlend in="SourceGraphic" in2="bg"/></filter><mask id="mask-4" x="1.25" y="0" width="17.5" height="20" maskUnits="userSpaceOnUse"><g class="cls-3"><path class="cls-4" d="M10,0A8.75,8.75,0,0,0,1.25,8.75c0,4.6,4.15,8.33,8.75,8.33V20c5.3-2.58,8.75-6.85,8.75-11.25A8.75,8.75,0,0,0,10,0Z"/></g></mask><radialGradient id="radial-gradient-4" cx="3.81" cy="2.57" r="18.47" gradientUnits="userSpaceOnUse"><stop offset="0" stop-color="#fff"/><stop offset="1" stop-color="#fff"/></radialGradient></defs><title>ic_Hangouts-on</title><g class="cls-6"><g id="レイヤー_2" data-name="レイヤー 2"><g id="レイヤー_1-2" data-name="レイヤー 1"><circle class="cls-5" cx="10" cy="10" r="10"/><path class="cls-7" d="M10,0A8.75,8.75,0,0,0,1.25,8.75c0,4.6,4.15,8.33,8.75,8.33V20c5.3-2.58,8.75-6.85,8.75-11.25A8.75,8.75,0,0,0,10,0Z"/><path class="cls-8" d="M10,.1a8.75,8.75,0,0,1,8.75,8.7V8.75a8.75,8.75,0,0,0-17.5,0V8.8A8.76,8.76,0,0,1,10,.1Z"/><g class="cls-9"><path class="cls-10" d="M10,17C5.41,17,1.28,13.27,1.25,8.7v.05c0,4.6,4.15,8.33,8.75,8.33ZM18.75,8.7c0,4.38-3.47,8.62-8.75,11.2V20c5.3-2.58,8.75-6.85,8.75-11.25Z"/></g><g class="cls-11"><g class="cls-12"><polygon class="cls-13" points="20.21 20 20.21 11.88 14.58 6.25 10.83 6.25 10.83 7.5 9.58 6.25 5.83 10 15.83 20 20.21 20"/></g></g><path class="cls-14" d="M5.83,10H7.92v2.08A1.9,1.9,0,0,0,9.58,10V6.25H5.83Zm5-3.75V10h2.09v2.08A1.9,1.9,0,0,0,14.58,10V6.25Z"/><path class="cls-15" d="M10.83,6.25v.1h3.75v-.1Zm-5,.1H9.58v-.1H5.83Z"/><g class="cls-16"><path class="cls-10" d="M7.92,10H5.83l.11.1h2Zm0,2.08v.11A1.91,1.91,0,0,0,9.58,10.1V10A1.9,1.9,0,0,1,7.92,12.08Zm5-2.08H10.83v.1h2.09Zm0,2.08v.11a1.91,1.91,0,0,0,1.66-2.09V10A1.9,1.9,0,0,1,12.92,12.08Z"/></g><g class="cls-17"><path class="cls-10" d="M7.92,10H5.83l.11.1h2Zm0,2.08v.11A1.91,1.91,0,0,0,9.58,10.1V10A1.9,1.9,0,0,1,7.92,12.08Zm5-2.08H10.83v.1h2.09Zm0,2.08v.11a1.91,1.91,0,0,0,1.66-2.09V10A1.9,1.9,0,0,1,12.92,12.08Z"/></g><g class="cls-18"><path class="cls-19" d="M10,0A8.75,8.75,0,0,0,1.25,8.75c0,4.6,4.15,8.33,8.75,8.33V20c5.3-2.58,8.75-6.85,8.75-11.25A8.75,8.75,0,0,0,10,0Z"/></g></g></g></g></svg>