<svg id="レイヤー_1" data-name="レイヤー 1" xmlns="http://www.w3.org/2000/svg" viewBox="0 0 24 24"><defs><style>.cls-1{fill:#fff;}.cls-2{fill:none;}</style></defs><title>ic_sound-off</title><path class="cls-1" d="M12,4,9.91,6.09,12,8.18M4.27,3,3,4.27,7.73,9H3v6H7l5,5V13.27l4.25,4.26A6.81,6.81,0,0,1,14,18.7v2.07A9,9,0,0,0,17.68,19l2.05,2L21,19.73l-9-9M19,12a6.85,6.85,0,0,1-.54,2.64L20,16.15A9,9,0,0,0,14,3.23V5.29A7,7,0,0,1,19,12m-2.5,0A4.46,4.46,0,0,0,14,8v2.21l2.45,2.45A2.94,2.94,0,0,0,16.5,12Z"/><rect class="cls-2" width="24" height="24"/></svg>