<svg id="レイヤー_1" data-name="レイヤー 1" xmlns="http://www.w3.org/2000/svg" viewBox="0 0 24 24"><defs><style>.cls-1{fill:#8b9197;}.cls-2{fill:none;}</style></defs><title>ic_sendInvitation</title><path class="cls-1" d="M20,14.5H4v-6H9.08L7,11.33,8.62,12.5,11,9.26,12,7.9l1,1.36,2.38,3.24L17,11.33,14.92,8.5H20m0,11H4v-2H20M9,4.5a1,1,0,1,1-1,1,1,1,0,0,1,1-1m6,0a1,1,0,1,1-1,1,1,1,0,0,1,1-1m5,2H17.82A3,3,0,0,0,12.5,3.85L12,4.5l-.5-.66A3,3,0,0,0,6.18,6.5H4a2,2,0,0,0-2,2v11a2,2,0,0,0,2,2H20a2,2,0,0,0,2-2V8.5A2,2,0,0,0,20,6.5Z"/><rect class="cls-2" width="24" height="24"/></svg>