<svg id="レイヤー_1" data-name="レイヤー 1" xmlns="http://www.w3.org/2000/svg" viewBox="0 0 20 20"><defs><style>.cls-1{fill:#8b9197;}.cls-2{fill:none;}</style></defs><title>ic_lipSync-off</title><path class="cls-1" d="M3.18,2,2,3.18,4.28,5.46H3.67a.84.84,0,0,0-.83.84v8.36a.83.83,0,0,0,.83.83h10a.75.75,0,0,0,.46-.15L16.82,18,18,16.82,10.59,9.41,3.18,2M4.51,13.82V7.13H6l6.69,6.69H4.51m8.36-6.69V9.31l5,5V5.88L14.54,9.22V6.3a.85.85,0,0,0-.84-.84H9l1.68,1.67Z"/><rect class="cls-2" width="20" height="20"/></svg>