<svg id="レイヤー_1" data-name="レイヤー 1" xmlns="http://www.w3.org/2000/svg" viewBox="0 0 24 24"><defs><style>.cls-1{fill:#fff;}.cls-2{fill:none;}</style></defs><title>ic_translate</title><path class="cls-1" d="M12.87,15.07l-2.54-2.51,0,0A17.52,17.52,0,0,0,14.07,6H17V4H10V2H8V4H1V6H12.17A15.77,15.77,0,0,1,9,11.35,15.65,15.65,0,0,1,6.69,8h-2a17.56,17.56,0,0,0,3,4.56l-5.09,5L4,19l5-5,3.11,3.11.76-2M18.5,10h-2L12,22h2l1.12-3h4.75L21,22h2L18.5,10m-2.62,7,1.62-4.33L19.12,17Z"/><rect class="cls-2" width="24" height="24"/></svg>