<svg xmlns="http://www.w3.org/2000/svg" viewBox="0 0 20 20"><defs><style>.cls-1{fill:#fff;}.cls-2{fill:#b0b3b5;}.cls-3{fill-opacity:0.1;}.cls-4{fill-opacity:0.2;}.cls-5{fill:#8b9197;}.cls-6{fill:none;}</style></defs><title>ic_Teams-off</title><g id="レイヤー_2" data-name="レイヤー 2"><g id="レイヤー_1-2" data-name="レイヤー 1"><circle class="cls-1" cx="10" cy="10" r="10"/><circle class="cls-2" cx="10.39" cy="5.57" r="2.04"/><path class="cls-3" d="M10.24,6H8.39v0h0v0a2.05,2.05,0,0,0,2.41,1.48v-1A.59.59,0,0,0,10.24,6Z"/><path class="cls-4" d="M9.8,6.45H8.54a2.06,2.06,0,0,0,1.85,1.17V7a.59.59,0,0,0-.59-.58Z"/><circle class="cls-5" cx="14.98" cy="6.23" r="1.53"/><path class="cls-5" d="M16.29,8.2H12.85a.29.29,0,0,0-.28.28V12a2.26,2.26,0,0,0,1.74,2.22,2.3,2.3,0,0,0,.45.05A2.2,2.2,0,0,0,17,12.11V8.86a.67.67,0,0,0-.66-.66Z"/><path class="cls-2" d="M13.89,8.86V13a3.5,3.5,0,0,1-6.53,1.75,3,3,0,0,1-.22-.44A3.09,3.09,0,0,1,7,13.89,3.27,3.27,0,0,1,6.89,13V8.86h0a.66.66,0,0,1,.65-.66h5.69a.67.67,0,0,1,.66.66Z"/><path class="cls-4" d="M9.8,6.45H8.54a2.06,2.06,0,0,0,1.85,1.17V7a.59.59,0,0,0-.59-.58Z"/><path class="cls-3" d="M10.82,8.2v5.54a.59.59,0,0,1-.45.57.28.28,0,0,1-.13,0H7.14A3.09,3.09,0,0,1,7,13.89,3.27,3.27,0,0,1,6.89,13V8.86h0a.66.66,0,0,1,.65-.66Z"/><path class="cls-4" d="M10.39,8.2v6a.59.59,0,0,1,0,.13.58.58,0,0,1-.56.45H7.36a3,3,0,0,1-.22-.44A3.09,3.09,0,0,1,7,13.89,3.27,3.27,0,0,1,6.89,13V8.86h0a.66.66,0,0,1,.65-.66Zm0,0v5.11a.59.59,0,0,1-.58.58H7A3.27,3.27,0,0,1,6.89,13V8.86h0a.66.66,0,0,1,.65-.66Zm-2.85,0h0a.66.66,0,0,0-.65.66V13a3.27,3.27,0,0,0,.11.88H9.37a.59.59,0,0,0,.58-.58V8.2Z"/><path class="cls-5" d="M3.53,6.45H9.37A.58.58,0,0,1,10,7v5.84a.58.58,0,0,1-.58.58H3.53A.58.58,0,0,1,3,12.87V7A.58.58,0,0,1,3.53,6.45Z"/><path class="cls-1" d="M8.19,8.63H6.88v3.51H6V8.63H4.71V7.76H8.19Z"/><path class="cls-6" d="M3,3H17V17H3Z"/></g></g></svg>